# xmcd
#
# Track frame offsets:
#	150
#	17503
#	31519
#	50345
#	69980
#	86666
#	103963
#	122254
#	139792
#	155531
#	167435
#	187288
#	200947
#	216991
#	234325
#	250464
#	266662
#	286112
#	302730
#	319737
#	333717
#
# Disc length: 4648 seconds
#
# Revision: 0
# Processed by: cddbd v1.4PL0 Copyright (c) Steve Scherf et al.
# Submitted via: audiograbber 1.80
#
DISCID=30122615
DTITLE=CDX - Volume 316 April 2003
DYEAR=1900
DGENRE=
TTITLE0=Clay Walker - A Few Questions
TTITLE1=The Oak Ridge Boys - Colors
TTITLE2=Shania Twain - Forever And For Always
TTITLE3=The Warren Brothers - Hey, Mr. President
TTITLE4=Joanie Keller - If Heartaches Had Wings
TTITLE5=Dusty Drake - One Last Time
TTITLE6=Brooks and Dunn - Red Dirt Road (Single Edit)
TTITLE7=Charlie Robison - Walter
TTITLE8=Tammy Cochran - What Kind Of Woman Would I Be
TTITLE9=Patrick Murphy - Girls Like Her, Men Like Me
TTITLE10=Wendy Manley - Mobile
TTITLE11=BlackHawk - Days Of America
TTITLE12=Lee Greenwood - God Bless The USA 2003
TTITLE13=Aaron Tippin - Where The Stars And Stripes And The Eagle Fly
TTITLE14=Kenni Thomas and Cornbread - Hero
TTITLE15=Ricky Hendrix - Mr. Lonely
TTITLE16=Brian Bennett - Say A Prayer
TTITLE17=Keith Bryant - Soldiers In Heaven
TTITLE18=Best Of Friends (Joyce Martin McCollough, Karen Peck Gooch and Sheri Eas
TTITLE18=ter) - I'm A Mom
TTITLE19=Tim Wilson - The Ward Burton Train
TTITLE20=Charley Pride - Comfort Of Her Wings
EXTD=
EXTT0=
EXTT1=
EXTT2=
EXTT3=
EXTT4=
EXTT5=
EXTT6=
EXTT7=
EXTT8=
EXTT9=
EXTT10=
EXTT11=
EXTT12=
EXTT13=
EXTT14=
EXTT15=
EXTT16=
EXTT17=
EXTT18=
EXTT19=
EXTT20=
PLAYORDER=
